{"glyphs":{"0":{"ha":644,"x_min":0,"x_max":0,"o":"m 558 793 b 592 941 561 831 583 909 b 235 847 373 952 338 828 b 80 750 107 870 74 813 b 102 612 84 705 107 658 b 56 413 94 542 53 487 b 87 244 58 356 90 301 b 62 99 84 194 72 151 b 185 -17 49 31 103 -14 b 402 82 263 -20 292 93 b 557 225 519 69 544 159 b 538 387 568 279 561 336 b 577 648 500 475 572 567 b 558 793 580 699 555 742 z m 470 616 b 423 417 462 546 421 491 b 412 193 425 361 488 186 b 190 88 286 206 223 129 b 176 49 181 77 176 63 b 183 216 168 105 170 162 b 170 383 197 272 193 330 b 205 647 132 470 196 566 b 175 770 210 694 148 735 b 346 759 207 813 264 721 b 486 863 401 784 438 842 b 448 755 460 833 446 794 b 470 616 449 710 475 662 z "},"1":{"ha":350,"x_min":0,"x_max":0,"o":"m 202 909 b 53 818 167 899 76 860 b 61 714 39 791 54 740 b 126 770 67 739 94 756 b 156 650 137 730 158 690 b 113 452 151 580 106 526 b 159 284 119 396 159 341 b 105 15 159 193 91 110 b 294 15 124 15 239 15 b 273 257 262 108 257 194 b 248 422 286 313 277 372 b 278 681 199 509 277 601 b 248 825 279 732 248 775 b 252 849 249 833 250 841 b 261 879 256 859 259 869 b 286 946 271 910 285 940 b 202 909 280 946 228 916 z "},"2":{"ha":597,"x_min":0,"x_max":0,"o":"m 119 474 b 139 306 116 418 148 363 b 44 15 125 214 45 110 b 171 34 73 32 124 31 b 219 39 188 33 204 34 b 433 126 302 76 365 85 b 479 328 521 179 478 321 b 222 166 374 217 297 206 b 247 278 225 204 233 242 b 248 444 269 331 269 390 b 240 479 244 455 241 467 b 337 451 272 470 308 459 b 459 580 376 439 457 515 b 455 725 461 627 443 681 b 544 828 467 768 513 792 b 505 939 564 852 555 923 b 372 977 471 949 409 979 b 276 953 312 973 295 962 b 54 888 238 937 120 897 b 264 836 79 873 206 795 b 349 881 300 861 322 881 b 421 859 399 881 427 870 b 332 729 390 807 343 778 b 331 578 321 678 342 628 b 220 510 321 534 264 518 b 119 474 186 515 121 505 z "},"3":{"ha":764,"x_min":0,"x_max":0,"o":"m 169 385 b 63 303 119 381 87 332 b 190 247 89 307 159 284 b 351 98 238 191 292 141 b 596 65 429 39 530 22 b 642 190 625 84 641 132 b 600 379 644 256 630 321 b 707 568 554 467 682 509 b 618 775 735 632 719 682 b 514 931 575 815 583 883 b 340 980 466 964 393 977 b 260 873 311 946 284 910 b 490 766 319 888 431 901 b 640 604 535 662 612 643 b 565 544 654 584 609 560 b 451 457 518 529 478 498 b 546 211 530 440 548 297 b 395 195 544 139 436 147 b 343 265 375 216 358 240 b 277 349 326 294 298 333 b 169 385 226 389 209 388 z "},"4":{"ha":532,"x_min":0,"x_max":0,"o":"m 233 954 b 118 789 193 953 117 854 b 130 647 119 742 140 694 b 47 518 120 601 75 563 b 91 420 28 489 41 421 b 225 422 126 420 189 409 b 320 474 285 444 299 463 b 323 444 351 490 327 465 b 250 269 307 361 256 349 b 158 -6 239 141 158 92 b 339 -5 176 -6 286 -6 b 354 248 322 92 321 156 b 428 457 377 312 427 334 b 502 671 428 536 433 609 b 325 594 465 665 381 652 b 244 524 291 558 270 532 b 171 524 194 509 165 511 b 252 680 199 585 244 628 b 245 829 260 733 237 777 b 402 956 257 905 399 946 b 233 954 388 956 294 954 z "},"5":{"ha":715,"x_min":0,"x_max":0,"o":"m 217 786 b 229 648 218 741 239 694 b 144 524 219 604 173 567 b 190 429 124 495 138 430 b 328 430 225 428 290 417 b 425 480 390 451 404 469 b 429 450 457 495 433 471 b 353 282 412 371 360 359 b 298 131 347 216 369 177 b 161 141 278 118 216 126 b 137 277 80 163 108 248 b 43 183 89 273 44 206 b 194 15 40 45 165 15 b 445 16 213 15 391 15 b 461 260 428 109 427 172 b 536 462 484 322 536 343 b 649 606 537 539 545 563 b 431 595 622 613 489 652 b 346 528 395 561 374 536 b 272 529 295 514 265 517 b 355 679 300 588 347 629 b 346 809 363 726 344 765 b 465 831 386 813 426 821 b 564 1006 568 857 562 999 b 194 901 394 911 268 938 b 117 785 151 880 117 785 b 219 806 149 798 184 806 b 217 786 217 799 217 793 z "},"6":{"ha":622,"x_min":0,"x_max":0,"o":"m 390 71 b 580 303 575 62 586 250 b 451 448 572 373 520 432 b 295 343 339 476 308 396 b 423 399 326 369 376 414 b 493 322 465 387 484 348 b 357 178 511 267 506 150 b 220 152 288 191 270 161 b 233 278 217 194 221 237 b 237 444 252 339 258 401 b 356 700 193 532 350 619 b 336 845 360 751 332 794 b 487 966 341 918 445 951 b 208 807 426 972 183 977 b 233 668 215 761 239 714 b 105 474 224 598 102 549 b 122 305 107 418 126 363 b 38 -6 116 214 30 89 b 239 40 57 -6 177 24 l 239 40 b 390 71 307 50 335 74 z "},"7":{"ha":786,"x_min":0,"x_max":0,"o":"m 555 969 b 523 954 543 967 531 962 b 160 862 351 875 237 897 b 62 746 114 841 62 746 b 176 767 98 760 137 768 b 419 792 257 764 339 772 b 440 799 426 794 433 796 b 452 662 442 754 461 707 b 370 535 442 617 401 577 b 315 535 352 540 333 540 b 181 486 284 526 220 476 b 243 452 194 475 219 453 b 340 478 263 451 303 464 b 335 454 337 471 336 462 b 337 280 332 396 346 339 b 245 5 323 186 246 103 b 427 6 263 5 374 5 b 442 252 410 103 418 187 b 461 424 466 316 478 379 b 574 695 426 514 561 612 b 567 844 582 748 559 792 b 724 971 579 920 721 961 b 555 969 710 971 616 969 z "},"8":{"ha":658,"x_min":0,"x_max":0,"o":"m 382 128 b 179 123 269 34 174 112 b 244 254 201 175 242 205 b 218 405 246 304 216 355 b 318 475 220 449 276 466 b 425 375 353 438 393 417 b 444 161 480 303 438 172 b 533 280 452 172 500 237 b 420 481 552 305 535 390 b 461 470 434 477 448 473 b 561 599 502 458 570 534 b 533 744 555 646 528 700 b 604 848 537 787 580 811 b 547 958 620 871 599 942 b 408 996 511 968 444 998 b 315 973 348 992 333 981 b 112 908 250 944 182 923 b 98 904 107 908 102 907 b 285 519 183 861 231 620 b 285 518 285 519 285 519 l 286 518 b 294 505 288 513 291 509 b 190 532 260 513 221 524 b 91 402 149 544 82 467 b 121 256 98 355 125 301 b 51 152 117 213 75 189 b 109 42 35 129 58 67 b 247 -5 147 24 208 -1 b 611 67 412 -24 418 100 b 382 128 532 113 432 170 z m 209 858 b 324 855 253 843 299 835 b 401 900 355 881 374 900 b 476 878 450 900 481 889 b 409 748 454 826 412 797 b 434 597 407 698 436 647 b 361 535 432 562 397 545 b 319 599 345 555 331 576 b 209 858 288 671 297 765 z "},"9":{"ha":531,"x_min":0,"x_max":0,"o":"m 228 959 b 107 793 176 956 103 858 b 124 649 110 745 132 697 b 47 519 117 603 73 564 b 95 421 30 490 45 422 b 228 423 129 421 192 410 b 320 476 287 445 300 465 b 324 445 350 492 328 466 b 258 269 312 362 262 349 b 178 -8 252 140 175 91 b 358 -7 196 -8 306 -8 b 363 248 337 91 334 156 b 427 458 383 312 432 334 b 455 660 425 512 449 573 b 448 802 458 701 466 747 b 344 610 431 685 381 683 b 242 526 315 555 280 536 b 170 526 193 513 165 513 b 244 683 195 587 239 631 b 232 833 251 736 224 781 b 485 903 245 925 438 836 b 228 959 371 907 365 965 z "},"\u0000":{"ha":0,"x_min":0,"x_max":0,"o":""},"\n":{"ha":0,"x_min":0,"x_max":0,"o":""},"\r":{"ha":0,"x_min":0,"x_max":0,"o":""}," ":{"ha":350,"x_min":0,"x_max":0,"o":""},"!":{"ha":283,"x_min":0,"x_max":0,"o":"m 112 98 b 89 71 102 91 94 82 l 56 0 b 68 12 59 4 64 8 b 97 20 77 17 87 19 b 133 24 109 22 121 22 b 171 33 146 25 159 28 b 199 56 182 38 191 46 b 219 105 210 70 217 87 b 227 129 220 114 222 122 b 112 98 194 92 161 130 z m 99 661 b 63 462 96 591 54 536 b 115 293 71 405 113 350 b 94 127 117 215 88 207 b 212 276 146 166 186 217 b 199 432 238 334 224 388 b 219 692 146 519 221 612 b 184 837 218 744 185 786 b 218 959 184 875 216 949 b 84 959 193 959 106 959 b 60 799 69 907 47 862 b 99 661 70 754 100 707 z "},"$":{"ha":601,"x_min":0,"x_max":0,"o":"m 561 633 b 344 622 533 640 392 679 b 272 555 315 588 298 563 b 197 556 224 542 193 544 b 253 706 215 615 254 656 b 219 851 252 758 219 800 b 238 898 219 868 226 885 b 285 886 253 892 268 888 b 278 754 289 831 295 779 b 279 753 278 754 279 753 b 350 801 299 765 323 783 b 366 815 356 804 362 809 b 384 892 381 836 385 859 b 426 866 412 895 426 893 b 495 752 426 825 441 771 b 500 822 480 774 482 802 b 415 975 542 877 491 928 b 380 990 404 982 392 987 b 379 1064 379 1012 378 1036 b 390 1112 379 1081 383 1097 l 311 1041 b 291 1011 302 1033 295 1023 b 286 990 289 1004 287 997 b 194 972 252 984 220 975 l 183 972 b 176 971 181 972 178 971 b 158 962 169 970 162 967 b 94 813 121 936 84 864 b 133 675 104 767 134 720 b 70 550 131 630 92 594 b 134 456 57 522 82 457 b 272 457 170 455 237 444 b 360 507 330 478 341 496 b 369 477 390 522 370 497 b 325 309 368 398 317 385 b 298 158 331 243 360 204 b 288 154 295 156 292 154 b 291 265 288 184 288 220 b 304 312 292 282 296 298 l 222 246 b 201 217 212 238 205 228 b 189 162 194 199 191 181 b 160 168 179 164 169 166 b 107 202 133 173 129 176 b 111 303 82 230 95 261 b 55 169 81 294 43 236 b 189 42 75 60 145 44 b 175 -39 189 7 187 -22 b 176 -40 174 -40 175 -41 b 249 4 196 -29 220 -12 b 265 17 255 7 261 12 b 279 42 271 25 276 33 b 467 43 341 42 431 42 b 437 287 432 136 420 199 b 475 489 449 349 497 370 b 561 633 461 566 465 590 z "},"%":{"ha":756,"x_min":0,"x_max":0,"o":"m 517 666 b 535 810 534 717 517 760 b 613 932 548 848 608 923 b 397 772 588 932 407 835 b 385 634 390 727 403 680 b 277 435 357 564 295 509 b 267 266 264 378 286 324 b 178 0 237 175 185 101 b 371 239 197 0 335 176 b 401 405 401 288 412 348 b 517 666 381 493 489 585 z m 685 432 b 679 439 683 435 681 437 b 618 452 664 455 640 455 b 532 388 582 446 541 427 b 525 332 527 370 531 350 b 487 286 519 312 500 301 b 466 241 477 272 470 257 b 463 177 462 220 461 199 b 475 136 462 163 467 148 b 500 124 482 129 491 125 b 556 133 519 122 539 125 b 617 173 579 142 603 152 b 639 220 625 188 633 204 b 670 272 647 239 660 255 b 693 393 689 309 691 352 b 685 432 694 406 691 420 z m 621 320 b 620 317 620 319 620 318 b 611 284 619 306 615 295 b 592 248 606 271 600 259 b 557 228 583 237 571 230 b 545 230 553 228 549 228 b 533 251 538 235 533 243 b 553 307 532 271 545 289 b 565 334 556 316 560 325 b 621 319 582 361 624 355 z m 217 538 b 239 586 226 553 233 569 b 270 638 247 604 261 620 b 293 758 289 674 291 718 b 285 798 294 772 291 786 b 280 805 283 800 282 803 b 219 817 265 820 240 821 b 132 753 182 811 141 792 b 126 698 128 735 132 716 b 87 651 119 678 100 667 b 67 606 77 638 70 623 b 63 543 63 585 62 564 b 75 502 62 528 67 514 b 101 489 82 495 91 490 b 156 499 120 488 139 491 b 217 538 179 507 203 518 z m 192 613 b 157 594 184 602 171 595 b 145 596 153 593 149 594 b 134 617 138 600 133 608 b 153 672 133 637 146 654 b 165 699 157 682 160 691 b 221 685 182 726 224 720 b 221 683 221 684 221 683 b 211 649 219 671 216 660 b 192 613 207 636 200 624 z "},"&":{"ha":864,"x_min":0,"x_max":0,"o":"m 219 272 b 191 401 219 323 191 351 b 216 449 191 421 200 438 b 302 480 242 468 282 475 b 327 477 311 480 319 479 b 407 431 359 467 375 441 b 489 564 443 420 499 498 b 459 710 482 611 457 666 b 517 816 461 754 498 779 b 463 927 530 840 509 912 b 341 964 432 937 406 899 b 116 942 304 1000 162 1006 b 126 742 92 909 79 808 b 225 636 180 667 198 675 b 213 595 244 609 228 606 b 278 593 215 594 250 567 b 274 676 294 609 299 631 b 206 769 240 737 231 727 b 192 904 176 821 169 879 b 410 850 237 956 299 866 b 352 712 397 794 352 762 b 379 560 351 661 379 610 b 247 525 378 508 279 513 b 172 548 227 532 220 549 b 112 509 145 547 120 519 b 80 397 87 477 75 437 b 112 273 88 349 114 318 b 55 166 110 229 74 204 b 110 56 42 142 64 80 b 231 10 143 38 198 14 b 381 29 277 4 335 -9 b 471 203 423 65 432 155 b 478 211 474 206 476 208 b 482 80 491 162 478 125 b 606 -114 489 18 540 -96 b 798 -104 683 -134 704 -89 b 615 -24 708 -38 650 -88 b 605 82 597 7 606 46 b 585 168 604 112 597 141 b 564 207 579 181 572 194 b 542 241 561 212 547 241 b 739 167 602 236 629 112 b 484 329 656 189 628 342 b 323 119 380 320 432 185 b 167 138 242 72 165 132 b 219 272 184 192 219 222 z "},"'":{"ha":101,"x_min":0,"x_max":0,"o":"m 35 834 b 22 1006 46 890 22 1006 b -37 906 22 1006 -40 972 b -22 774 -36 869 1 815 b 35 834 -6 785 30 807 z "},",":{"ha":203,"x_min":0,"x_max":0,"o":"m 147 216 b 59 116 142 169 81 146 b 51 0 19 63 51 0 b 159 133 51 0 137 82 b 147 216 170 159 154 197 z "},"-":{"ha":426,"x_min":0,"x_max":0,"o":"m 36 397 b 302 446 78 434 220 407 b 331 471 314 452 324 460 l 394 563 b 346 545 379 554 363 547 b 88 497 191 523 131 538 b 75 479 82 492 78 486 b 35 398 60 447 44 420 b 36 398 34 398 35 397 z "},".":{"ha":238,"x_min":0,"x_max":0,"o":"m 33 -13 b 46 -2 37 -9 41 -5 b 75 6 55 3 65 6 b 111 10 87 8 99 9 b 148 19 124 11 136 14 b 177 43 160 25 169 33 b 197 92 187 57 195 74 b 205 116 198 100 200 109 b 89 85 172 78 139 116 b 66 58 79 78 71 69 z "},"/":{"ha":560,"x_min":0,"x_max":0,"o":"m 282 795 b 270 656 275 749 288 702 b 162 457 242 586 179 532 b 152 288 149 401 171 346 b 63 22 122 197 70 124 b 256 261 81 22 220 198 b 286 427 286 310 297 370 b 401 688 266 515 374 607 b 420 833 419 739 402 782 b 497 955 433 871 492 945 b 282 795 473 954 292 858 z "},"?":{"ha":613,"x_min":0,"x_max":0,"o":"m 400 98 b 377 71 390 91 382 82 l 344 0 b 356 12 347 4 352 8 b 385 20 365 17 375 19 b 421 24 397 22 409 22 b 459 33 434 25 447 28 b 487 56 470 38 480 46 b 508 105 498 70 505 87 b 515 129 508 114 511 122 b 400 98 483 92 449 130 z m 556 735 b 538 834 554 768 541 800 b 579 997 533 890 556 945 b 440 957 530 992 479 986 b 397 921 425 946 412 932 b 355 899 384 912 370 904 b 313 885 342 894 324 893 b 280 813 292 869 284 837 b 239 542 264 723 271 628 b 201 495 232 523 221 502 b 165 493 189 491 177 491 b 63 513 130 497 96 504 b 128 408 89 481 98 436 b 260 394 162 375 218 373 b 334 468 291 411 317 436 b 349 500 340 478 345 489 b 380 638 365 545 375 591 b 413 776 385 685 396 731 b 434 628 434 730 442 678 b 389 415 422 556 379 488 b 420 303 394 377 413 342 b 391 136 430 247 410 190 b 517 229 445 146 491 180 b 531 386 542 277 547 334 b 506 468 523 414 510 440 b 556 735 490 558 562 644 z "},"A":{"ha":657,"x_min":0,"x_max":0,"o":"m 573 241 b 497 409 565 303 539 362 b 436 691 425 488 462 606 b 358 838 419 746 374 786 b 354 974 345 878 331 930 b 183 929 296 963 239 948 b 89 776 147 913 76 839 b 127 638 98 731 129 683 b 45 437 125 568 35 512 b 78 269 52 381 76 326 b 33 2 81 177 16 98 b 221 3 52 2 166 2 b 192 241 186 96 179 178 b 198 279 195 254 197 267 b 375 395 212 329 344 322 b 466 240 400 342 448 297 b 490 2 491 162 474 81 b 664 2 524 1 612 2 b 573 241 606 92 581 171 z m 325 480 b 188 391 255 442 200 441 b 180 407 186 397 183 402 b 248 669 127 495 249 589 b 221 796 246 721 225 747 b 253 864 218 827 237 848 b 266 762 252 837 248 799 b 341 626 288 717 328 675 b 351 511 351 587 350 549 b 325 480 346 498 337 487 z "},"B":{"ha":660,"x_min":0,"x_max":0,"o":"m 205 666 b 171 810 204 717 172 760 b 173 830 171 817 172 824 b 429 764 273 831 384 831 b 400 635 471 703 440 652 b 175 533 362 619 235 590 b 205 666 187 579 206 624 z m 468 364 b 513 247 530 324 551 284 b 448 122 474 211 501 149 b 213 119 411 103 284 112 b 215 238 207 159 208 199 b 208 354 223 277 220 317 b 359 480 233 408 296 445 b 468 364 378 415 424 394 z m 114 932 b 70 933 95 932 79 932 b 47 772 55 880 34 835 b 85 634 56 727 87 680 b 50 435 83 564 40 509 b 102 266 58 378 100 323 b 57 0 105 175 40 95 b 244 0 76 0 190 0 b 499 3 320 0 439 0 b 594 147 590 7 559 97 b 624 306 629 197 677 198 b 469 446 571 414 506 418 b 452 533 432 473 423 509 l 451 533 b 503 578 471 545 488 560 b 454 859 579 670 552 777 b 118 934 364 933 168 938 b 114 932 117 934 115 934 z "},"C":{"ha":625,"x_min":0,"x_max":0,"o":"m 329 935 b 188 832 241 941 196 894 b 119 660 183 769 159 709 b 9 453 63 589 3 554 b 153 191 16 317 119 333 b 334 0 179 84 262 -1 b 478 95 411 1 448 24 b 574 212 500 148 552 130 b 617 298 584 243 599 272 l 483 297 b 437 217 483 297 472 242 b 349 118 392 184 394 123 b 262 227 318 115 282 151 b 132 444 236 328 200 359 b 227 579 82 506 202 519 b 283 769 255 647 261 709 b 385 755 301 818 357 810 b 432 586 417 690 398 629 b 553 586 464 585 517 586 b 491 786 505 639 531 720 b 329 935 451 853 413 929 z "},"D":{"ha":672,"x_min":0,"x_max":0,"o":"m 187 822 b 387 732 285 816 354 814 b 524 527 432 621 502 598 b 502 407 546 455 519 466 b 499 231 485 349 534 292 b 279 179 464 169 336 213 b 210 156 258 167 234 159 b 215 240 208 184 210 212 b 185 406 226 297 215 356 b 206 667 133 494 207 586 b 171 811 204 718 172 761 b 172 823 171 815 171 819 b 187 822 177 823 182 823 z m 70 933 b 47 773 55 881 34 836 b 85 635 56 728 87 681 b 50 436 83 565 40 510 b 102 267 58 379 100 324 b 57 1 105 176 40 96 b 244 1 76 1 190 1 l 243 4 b 332 36 264 7 285 16 b 572 133 416 72 505 46 b 607 323 640 220 593 235 b 638 530 623 422 681 387 b 470 781 602 648 561 629 b 128 934 379 932 188 934 b 120 933 125 934 123 934 b 70 933 98 933 79 933 z "},"E":{"ha":583,"x_min":0,"x_max":0,"o":"m 70 941 b 47 781 55 889 34 844 b 85 643 56 735 87 688 b 50 443 83 572 40 518 b 102 275 58 387 100 332 b 57 8 105 183 40 104 b 169 8 69 8 119 8 l 169 8 b 224 9 189 8 208 8 b 480 -6 325 6 395 -13 b 582 146 588 3 580 139 b 211 145 464 108 230 143 b 215 247 207 179 209 214 b 211 353 222 282 221 318 b 367 450 220 406 335 426 b 400 590 424 493 400 590 b 199 457 400 590 224 505 b 205 371 188 435 197 398 b 185 413 200 386 193 400 b 205 674 133 501 207 594 b 172 804 204 720 178 759 b 397 788 250 802 321 782 b 498 939 504 796 496 933 b 204 941 500 945 313 942 b 70 941 178 941 93 941 z "},"F":{"ha":499,"x_min":0,"x_max":0,"o":"m 70 933 b 47 773 55 881 34 836 b 85 635 56 727 87 680 b 50 435 83 565 40 510 b 102 267 58 379 100 324 b 57 0 105 175 40 96 b 244 1 76 0 190 0 b 215 239 209 94 202 176 b 211 345 222 274 221 310 b 367 442 220 398 335 418 b 400 582 424 485 400 582 b 199 449 400 582 224 497 b 205 363 188 427 197 390 b 185 405 200 378 193 392 b 206 666 133 493 207 586 b 172 796 204 712 178 751 b 397 780 250 794 321 774 b 498 932 504 789 496 925 b 204 933 500 937 313 935 b 70 933 178 933 93 933 z "},"G":{"ha":617,"x_min":0,"x_max":0,"o":"m 577 515 b 577 515 577 515 577 515 b 314 373 577 515 347 421 b 306 269 295 346 302 294 b 446 350 321 310 396 331 b 461 296 457 346 465 323 b 411 217 457 254 454 236 b 311 118 357 192 357 123 b 237 226 280 114 248 151 b 132 444 223 328 190 359 b 243 579 89 506 211 519 b 321 769 279 646 292 709 b 422 755 345 818 401 810 b 449 586 447 690 420 628 b 585 586 481 585 548 586 b 546 786 543 639 578 720 b 387 935 514 853 470 929 b 234 832 300 941 249 894 b 145 660 221 768 190 708 b 10 453 80 589 16 554 b 124 191 2 317 107 333 b 283 0 137 84 211 -1 b 438 95 359 1 399 24 b 559 216 466 148 521 138 b 565 390 588 277 547 326 b 577 515 592 482 578 512 z "},"H":{"ha":650,"x_min":0,"x_max":0,"o":"m 219 286 b 434 414 236 335 399 342 b 478 280 449 370 476 325 b 433 14 481 188 416 109 b 620 14 452 14 566 13 b 591 252 585 108 578 189 b 561 418 602 309 591 369 b 582 679 509 506 583 599 b 547 824 580 731 548 773 b 580 946 546 862 579 936 b 446 946 556 946 469 946 b 423 786 431 894 410 849 b 461 648 432 740 463 693 b 434 534 460 607 445 571 l 434 534 b 413 508 432 523 424 513 b 202 384 273 455 210 443 b 185 419 198 396 192 408 b 206 679 133 507 207 599 b 171 824 204 731 172 774 b 205 946 170 862 203 937 b 70 946 180 946 93 946 b 47 786 55 894 34 849 b 85 648 56 741 87 694 b 50 449 83 578 40 523 b 102 280 58 392 100 337 b 57 14 105 189 40 109 b 244 14 76 14 190 13 b 215 252 209 108 202 190 b 219 286 218 263 219 275 z "},"I":{"ha":260,"x_min":0,"x_max":0,"o":"m 69 934 b 46 774 54 882 33 837 b 84 636 55 728 85 681 b 49 436 82 565 39 511 b 100 268 56 380 98 325 b 73 1 103 176 43 103 b 208 2 92 1 153 1 b 214 240 173 95 201 177 b 184 406 225 297 214 356 b 204 667 131 494 206 586 b 170 812 203 718 171 761 b 203 934 169 850 201 924 b 69 934 178 934 92 934 z "},"J":{"ha":544,"x_min":0,"x_max":0,"o":"m 321 96 b 190 221 257 133 274 176 b 165 414 88 275 165 414 b 6 413 165 414 51 415 b 102 169 4 316 25 211 b 238 35 183 125 177 81 b 431 -9 299 -12 431 -9 b 427 1 430 -6 428 -3 b 456 179 429 68 473 110 b 441 321 443 230 431 271 b 487 498 454 389 491 424 b 450 667 484 555 447 610 b 516 936 454 759 525 840 b 329 933 497 935 383 934 b 339 694 357 839 357 757 b 355 527 323 638 329 578 b 325 261 400 439 325 350 b 366 85 325 168 375 170 b 321 96 350 84 334 88 z "},"K":{"ha":643,"x_min":0,"x_max":0,"o":"m 168 495 b 206 666 174 554 207 613 b 171 811 204 718 172 760 b 205 933 170 849 203 923 b 70 933 180 933 93 933 b 47 773 55 881 34 836 b 85 635 56 727 87 680 b 50 435 83 564 40 510 b 102 267 58 379 100 324 b 57 0 105 175 40 96 b 244 1 76 0 190 0 b 215 239 209 94 202 176 b 219 302 220 260 221 281 l 219 302 b 256 409 214 341 228 381 b 424 306 318 443 391 359 b 433 200 459 250 414 259 b 488 2 451 148 500 109 l 634 2 b 567 173 643 94 604 135 b 541 303 530 211 559 254 b 364 469 519 364 416 451 b 437 493 388 478 412 486 b 523 715 492 507 570 606 b 484 934 481 812 476 897 b 371 934 447 935 399 935 b 413 740 354 838 400 812 b 379 594 426 673 427 636 b 206 525 330 552 283 575 b 168 495 193 516 180 506 z "},"L":{"ha":517,"x_min":0,"x_max":0,"o":"m 419 1 b 521 153 526 10 519 146 b 212 145 437 126 294 136 b 215 253 207 181 208 218 b 185 420 226 311 215 370 b 206 681 133 508 207 600 b 171 825 204 732 172 775 b 205 947 171 863 203 938 b 70 947 180 947 93 947 b 47 787 55 895 34 850 b 85 649 56 742 87 695 b 50 450 83 579 40 524 b 102 281 58 393 100 338 b 57 15 105 190 40 110 b 182 15 70 15 129 15 b 419 1 273 11 339 -6 z "},"M":{"ha":833,"x_min":0,"x_max":0,"o":"m 366 476 b 214 878 375 712 265 776 b 195 971 198 906 192 939 b 72 783 181 967 37 921 b 77 645 84 736 78 691 b 42 446 75 575 32 520 b 93 277 49 389 91 334 b 48 11 96 186 31 106 b 236 11 67 11 181 10 b 207 249 201 105 194 186 b 177 416 218 307 207 366 b 197 676 125 503 199 596 b 182 744 196 700 190 722 b 279 609 209 701 247 689 b 364 304 308 534 253 448 b 553 620 421 456 552 490 b 613 761 553 699 588 741 b 645 647 625 723 646 684 b 610 447 642 576 600 522 b 661 279 617 391 659 336 b 616 12 664 187 599 108 b 803 13 635 12 749 12 b 775 251 768 106 762 188 b 745 417 785 308 775 367 b 765 678 692 505 767 597 b 731 823 764 729 731 772 b 757 971 730 861 744 930 b 629 931 735 965 664 946 b 470 737 571 908 461 878 b 366 476 479 596 421 562 z "},"N":{"ha":678,"x_min":0,"x_max":0,"o":"m 112 896 l 111 896 l 111 895 b 99 877 106 890 102 884 b 58 773 77 847 61 829 b 78 636 55 731 80 681 b 43 436 76 565 33 511 b 95 268 51 380 93 325 b 50 1 98 176 33 97 b 237 2 69 1 183 1 b 208 240 202 95 195 177 b 178 406 219 297 208 356 b 199 667 126 494 200 586 b 194 699 198 678 197 688 b 460 6 347 492 287 218 b 460 1 460 4 460 3 b 648 1 479 1 594 0 b 619 239 613 95 606 176 b 589 406 630 296 619 356 b 609 666 537 493 611 586 b 575 811 608 718 576 760 b 627 970 574 849 598 937 b 490 910 602 964 520 943 b 451 773 461 877 438 836 b 489 635 460 728 490 681 b 454 436 487 565 444 510 b 505 267 461 379 503 324 b 495 193 506 242 502 217 b 386 570 459 237 433 406 b 241 862 350 697 269 760 b 224 971 230 897 225 934 b 112 896 224 971 152 945 z "},"O":{"ha":664,"x_min":0,"x_max":0,"o":"m 623 328 b 607 412 614 355 608 383 b 624 511 608 445 614 478 b 601 664 634 558 640 604 b 530 742 581 694 551 713 b 447 864 502 778 479 825 b 317 937 415 904 376 935 b 257 903 293 938 274 924 b 188 807 232 873 212 830 b 114 756 165 788 140 770 b 49 690 86 740 64 717 b 36 595 34 661 30 627 b 50 497 42 563 47 530 b 33 353 52 452 38 402 b 65 212 27 304 30 256 b 107 176 77 198 91 186 b 150 144 122 167 136 156 b 241 49 184 113 211 77 b 349 7 271 22 304 3 b 440 51 384 10 416 26 b 490 100 456 66 471 83 b 574 156 515 123 547 137 b 633 244 606 175 627 208 b 623 328 636 272 633 301 z m 521 266 b 459 219 516 238 478 229 b 359 120 415 195 406 137 b 243 216 296 96 280 173 b 153 349 206 258 151 282 b 162 490 154 397 165 441 b 155 615 159 531 143 577 b 232 689 168 656 204 667 b 342 810 273 723 298 805 b 390 771 368 813 384 781 b 447 670 410 739 424 700 b 524 577 471 639 510 614 b 507 417 547 517 511 464 b 521 266 503 367 529 311 z "},"P":{"ha":553,"x_min":0,"x_max":0,"o":"m 206 670 b 171 815 204 721 172 764 b 173 835 171 821 172 828 b 429 769 273 836 384 835 b 400 640 471 708 440 656 b 175 537 362 624 236 595 b 206 670 187 583 207 628 z m 115 937 b 70 937 95 937 79 937 b 47 777 55 885 34 840 b 85 639 56 731 87 684 b 50 439 83 568 40 514 b 102 271 58 383 100 328 b 57 4 105 179 40 100 b 244 5 76 4 190 4 b 215 243 209 98 202 180 b 208 358 223 281 220 321 b 444 533 245 438 363 481 b 503 582 466 546 486 563 b 454 864 579 675 552 782 b 118 939 364 938 168 943 b 115 937 117 939 115 938 z "},"Q":{"ha":694,"x_min":0,"x_max":0,"o":"m 461 72 b 490 100 470 81 480 91 b 574 156 515 123 547 137 b 633 244 606 175 627 208 b 623 328 636 272 633 301 b 607 412 614 355 608 383 b 624 511 608 445 614 478 b 601 664 634 558 640 604 b 530 742 580 694 551 713 b 447 864 502 778 479 825 b 317 937 415 904 376 935 b 257 903 293 938 274 924 b 188 807 232 873 212 830 b 114 756 165 788 140 770 b 49 690 86 740 64 717 b 36 595 34 661 30 627 b 50 497 42 563 47 530 b 33 354 52 452 38 402 b 65 212 27 304 30 256 b 107 176 77 198 91 186 b 150 144 122 167 136 156 b 241 49 184 113 211 77 b 349 7 271 22 304 3 b 359 8 352 7 356 8 b 546 -48 419 11 460 -55 b 676 103 655 -40 673 97 b 461 72 608 78 535 67 z m 243 216 b 152 349 206 259 151 282 b 162 490 154 397 165 441 b 155 615 159 531 143 577 b 232 689 168 656 204 667 b 342 810 273 723 298 805 b 390 771 368 813 384 781 b 447 670 410 739 424 700 b 524 577 471 639 510 614 b 507 417 547 517 511 464 b 521 266 503 367 529 311 b 459 219 516 238 478 229 b 359 120 415 195 406 137 b 243 216 296 96 280 173 z "},"R":{"ha":690,"x_min":0,"x_max":0,"o":"m 201 672 b 167 816 200 723 168 766 b 168 834 167 822 167 828 b 449 768 274 835 400 840 b 420 639 491 707 460 656 b 163 482 371 619 177 577 l 162 482 b 201 672 163 548 203 613 z m 66 939 b 43 779 51 887 30 842 b 81 640 52 733 82 686 b 46 441 79 570 36 515 b 97 272 53 385 96 330 b 105 6 100 181 75 107 b 240 6 124 6 186 6 b 211 245 205 100 198 182 b 215 302 215 264 216 283 l 216 301 b 333 458 214 373 268 419 b 412 431 362 464 392 453 b 447 316 431 407 412 375 b 541 187 477 268 525 238 b 525 5 561 120 514 73 b 686 5 558 4 635 5 b 648 187 633 82 652 127 b 561 331 644 246 595 298 b 480 478 501 392 520 437 b 426 510 465 494 447 505 b 464 533 439 518 452 525 b 522 581 485 546 505 562 b 473 863 598 674 572 781 b 200 938 406 918 281 935 l 200 938 b 142 938 175 939 155 939 b 66 939 111 938 79 938 z "},"S":{"ha":549,"x_min":0,"x_max":0,"o":"m 162 925 b 155 924 160 925 157 925 b 137 915 148 924 141 921 b 74 767 101 889 63 817 b 112 629 83 721 113 674 b 49 504 110 584 71 547 b 113 410 36 476 61 410 b 251 411 149 409 216 398 b 339 460 309 431 320 450 b 349 431 369 476 349 451 b 304 262 347 351 297 339 b 277 111 310 196 339 158 b 139 121 260 99 197 109 b 86 155 112 127 108 130 b 90 257 61 184 74 215 b 34 123 60 247 22 189 b 196 -4 59 -16 166 -4 b 447 -4 215 -4 392 -5 b 416 241 411 90 399 153 b 454 443 428 303 476 324 b 540 586 440 519 444 543 b 323 576 512 593 371 632 b 251 509 294 542 277 516 b 176 510 203 495 173 497 b 232 660 194 568 233 610 b 198 805 231 711 199 754 b 217 851 198 822 205 839 b 278 839 236 843 257 839 b 405 820 363 839 405 866 b 474 705 405 778 420 725 b 479 775 460 727 462 756 b 394 929 521 831 470 882 b 174 925 325 972 231 932 z "},"T":{"ha":617,"x_min":0,"x_max":0,"o":"m 241 791 b 279 653 250 745 281 698 b 244 453 277 583 234 528 b 296 285 252 397 294 342 b 251 18 299 193 234 114 b 438 19 270 18 384 18 b 409 257 403 112 396 194 b 379 423 420 314 409 373 b 399 684 327 511 401 604 b 368 804 399 727 376 763 b 499 811 412 798 456 801 b 632 967 628 849 622 947 b -8 953 544 951 -8 953 b 16 812 -8 953 4 867 b 237 818 93 828 167 825 b 241 791 238 809 239 800 z "},"U":{"ha":629,"x_min":0,"x_max":0,"o":"m 535 18 b 581 91 559 21 586 68 b 578 257 568 145 567 202 b 551 423 590 313 580 373 b 577 684 501 511 577 603 b 545 828 576 735 545 778 b 598 1009 545 866 564 966 b 474 942 570 1010 503 977 b 420 790 444 905 408 853 b 456 652 429 745 458 698 b 417 453 452 582 408 527 b 465 284 423 396 464 342 b 428 125 466 222 413 217 b 253 144 374 171 317 147 b 198 263 198 141 171 178 b 172 430 217 323 197 386 b 197 690 121 517 197 610 b 193 722 197 701 196 711 l 194 721 b 186 763 191 735 188 749 b 212 966 178 833 194 906 b 228 992 216 976 221 985 b 228 995 228 994 228 995 b 115 919 228 995 156 968 l 115 919 l 114 919 b 101 901 109 913 105 907 b 58 796 79 870 63 852 b 76 659 55 754 79 705 b 37 460 73 589 29 534 b 85 291 44 403 85 348 b 69 168 87 249 82 208 b 224 36 49 110 142 30 b 415 39 303 42 345 60 b 535 18 455 27 491 12 z "},"V":{"ha":706,"x_min":0,"x_max":0,"o":"m 433 215 b 559 392 465 281 524 328 b 601 512 581 429 595 469 b 608 682 610 593 594 601 b 706 946 625 774 688 854 b 530 946 684 946 587 948 b 472 603 547 817 502 723 b 467 456 460 552 489 507 b 332 191 428 368 353 286 b 231 494 389 317 284 394 b 220 658 206 543 228 605 b 180 812 212 711 190 760 b 181 943 175 855 175 900 b -3 946 128 943 30 947 b 103 685 13 851 86 779 b 131 458 117 608 92 529 b 240 296 162 403 225 361 b 235 158 252 243 234 210 b 407 -17 237 77 348 13 b 433 215 391 62 400 143 z "},"W":{"ha":871,"x_min":0,"x_max":0,"o":"m 527 350 b 452 713 515 429 553 557 b 251 355 370 512 264 509 b 190 219 246 292 223 250 b 188 253 191 230 191 242 b 179 314 182 273 179 293 b 213 529 186 387 222 452 b 163 696 205 587 165 637 b 212 945 161 792 228 848 b 32 943 190 944 86 944 b 55 706 61 868 69 786 b 84 537 44 648 54 588 b 64 260 134 454 63 344 b 97 114 65 206 96 167 b 65 -19 98 74 67 -9 b 117 8 83 -12 100 -2 l 117 8 b 131 17 122 11 127 14 b 320 217 188 48 302 89 b 437 498 338 351 363 400 b 543 21 407 198 569 207 b 533 -19 541 7 538 -6 b 696 177 562 4 705 44 b 718 315 693 224 708 270 b 790 515 733 386 786 440 b 770 683 793 571 762 626 b 865 950 784 775 864 854 b 678 949 846 950 732 950 b 662 711 695 856 687 774 b 661 545 640 658 640 598 b 591 284 697 457 605 364 b 595 214 589 261 590 237 b 527 350 571 252 537 280 z "},"X":{"ha":754,"x_min":0,"x_max":0,"o":"m 494 174 b 672 -17 518 67 600 -18 b 736 -8 694 -17 716 -14 l 734 141 b 688 101 722 121 711 104 b 603 210 657 98 622 134 b 476 427 579 311 542 342 b 573 562 427 489 547 502 b 632 752 602 630 609 692 b 724 754 648 795 695 794 l 721 908 b 680 918 708 914 694 917 b 538 815 592 924 547 877 b 466 643 532 752 507 692 b 378 538 434 603 400 574 b 288 648 356 577 321 606 b 217 821 247 697 223 757 b 75 923 208 882 163 929 b 34 914 61 922 47 919 l 31 759 b 123 757 60 799 106 801 b 181 567 146 697 152 635 b 277 432 206 508 327 494 b 149 215 210 348 174 316 b 63 117 130 139 93 114 b 16 130 46 118 30 122 l 15 -3 b 79 -12 36 -9 58 -12 b 258 179 151 -13 234 72 b 375 354 281 280 341 301 b 494 174 408 297 470 278 z "},"Y":{"ha":583,"x_min":0,"x_max":0,"o":"m 559 979 b 401 921 527 968 439 972 b 269 827 357 862 295 900 b 252 563 238 741 308 633 b 131 430 220 523 150 490 b 124 525 100 464 120 512 b 194 679 134 565 197 598 b 160 833 192 734 162 779 b 292 950 158 912 291 940 b 129 947 278 950 188 947 b 44 791 91 946 31 858 b 82 644 54 743 83 693 b 25 496 81 590 41 551 b 92 338 8 437 40 373 b 227 375 156 294 203 333 b 344 474 262 437 288 423 b 367 659 387 513 359 578 b 395 757 369 693 378 727 b 419 631 403 715 424 676 b 368 411 411 556 365 487 b 404 245 371 352 407 305 b 341 7 400 168 354 87 b 515 7 374 7 463 8 b 511 246 492 85 490 168 b 496 415 527 302 522 362 b 537 697 453 494 532 612 b 517 841 541 751 513 787 b 559 979 519 881 557 969 z "},"Z":{"ha":613,"x_min":0,"x_max":0,"o":"m 265 301 b 299 456 294 358 312 416 b 437 700 274 538 416 625 b 445 836 450 748 431 788 b 612 949 464 904 608 940 b 444 948 597 949 505 948 b 437 948 442 948 439 948 b 172 961 327 947 261 969 b 50 819 70 953 53 825 b 323 829 127 842 246 836 b 315 800 319 820 316 810 b 313 671 312 758 327 714 b 179 484 292 606 190 554 b 164 327 170 431 178 380 b 64 138 147 261 93 202 b 6 10 28 121 4 54 b 459 9 187 47 337 -24 b 612 156 587 45 599 137 b 225 143 564 147 378 144 b 265 301 227 198 241 252 z "}," ":{"ha":350,"x_min":0,"x_max":0,"o":""},"¡":{"ha":285,"x_min":0,"x_max":0,"o":"m 172 859 b 195 886 182 866 190 875 l 228 957 b 215 945 224 953 220 949 b 187 937 207 940 197 938 b 151 933 175 935 163 935 b 113 924 138 932 125 929 b 85 901 102 919 92 911 b 64 852 74 887 67 870 b 57 828 64 843 61 835 b 172 859 89 865 123 827 z m 185 296 b 220 495 187 366 230 421 b 169 664 213 552 171 607 b 190 830 166 742 195 750 b 72 681 138 791 97 740 b 85 525 46 623 59 569 b 65 265 138 438 63 345 b 99 120 66 213 98 171 b 66 -2 100 82 68 8 b 200 -2 91 -2 177 -2 b 223 158 215 50 236 95 b 185 296 214 203 184 250 z "},"­":{"ha":0,"x_min":0,"x_max":0,"o":""},"¿":{"ha":629,"x_min":0,"x_max":0,"o":"m 229 899 b 252 926 239 906 247 915 l 285 997 b 272 986 281 993 277 989 b 244 978 264 981 254 978 b 208 974 232 976 220 975 b 170 965 195 973 182 970 b 142 941 159 959 149 951 b 121 892 131 927 124 910 b 114 868 121 884 118 875 b 229 899 146 905 180 867 z m 501 589 b 369 603 467 622 411 625 b 295 530 338 587 312 561 b 280 497 289 519 284 508 b 249 359 264 452 254 406 b 216 222 244 312 233 266 b 195 369 194 268 187 319 b 240 582 207 441 250 510 b 209 694 235 621 215 656 b 238 862 199 750 218 808 b 112 769 184 851 138 817 b 97 611 87 720 82 664 b 123 529 105 584 119 557 b 73 263 139 439 67 354 b 91 163 75 229 88 197 b 50 0 96 107 73 52 b 189 40 99 5 150 11 b 232 77 204 52 217 66 b 274 98 245 86 259 93 b 316 113 286 103 305 105 b 349 185 337 128 345 161 b 390 455 365 275 358 369 b 428 502 397 475 408 495 b 464 504 440 506 452 506 b 566 484 498 500 533 494 b 501 589 540 516 531 561 z "},"À":{"ha":656,"x_min":0,"x_max":0,"o":"m 573 239 b 497 407 566 302 539 360 b 436 689 425 487 462 605 b 358 836 419 744 374 784 b 354 972 345 876 331 929 b 183 927 296 961 239 946 b 89 774 147 911 76 837 b 127 636 98 729 129 682 b 45 436 125 566 35 510 b 78 267 52 379 76 324 b 33 1 81 176 16 96 b 221 1 52 1 166 0 b 192 239 186 95 179 176 b 198 278 195 252 197 265 b 375 393 212 327 344 320 b 466 238 400 340 448 295 b 490 0 491 161 474 79 b 664 0 524 0 612 1 b 573 239 606 90 581 169 z m 325 478 b 188 389 255 440 200 439 b 180 406 186 395 183 400 b 248 667 127 493 249 587 b 221 794 246 719 225 745 b 253 862 218 825 237 847 b 266 761 252 835 248 798 b 341 624 288 715 328 673 b 351 509 351 585 350 547 b 325 478 346 496 337 486 z m 304 973 b 296 1090 304 973 336 1037 b 208 1189 274 1119 213 1143 b 196 1107 201 1171 185 1132 b 304 973 219 1055 304 973 z "},"Á":{"ha":656,"x_min":0,"x_max":0,"o":"m 366 1107 b 354 1189 377 1132 361 1171 b 266 1090 349 1143 288 1119 b 258 973 226 1037 258 973 b 366 1107 258 973 344 1055 z m 573 239 b 497 407 566 302 539 360 b 436 689 425 487 462 605 b 358 836 419 744 374 784 b 354 972 345 876 331 929 b 183 927 296 961 239 946 b 89 774 147 911 76 837 b 127 636 98 729 129 682 b 45 436 125 566 35 510 b 78 267 52 379 76 324 b 33 1 81 176 16 96 b 221 1 52 1 166 0 b 192 239 186 95 179 176 b 198 278 195 252 197 265 b 375 393 212 327 344 320 b 466 238 400 340 448 295 b 490 0 491 161 474 79 b 664 0 524 0 612 1 b 573 239 606 90 581 169 z m 325 478 b 188 389 255 440 200 439 b 180 406 186 395 183 400 b 248 667 127 493 249 587 b 221 794 246 719 225 745 b 253 862 218 825 237 847 b 266 761 252 835 248 798 b 341 624 288 715 328 673 b 351 509 351 585 350 547 b 325 478 346 496 337 486 z "},"Â":{"ha":656,"x_min":0,"x_max":0,"o":"m 573 239 b 497 407 566 302 539 360 b 436 689 425 487 462 605 b 358 836 419 744 374 784 b 354 972 345 876 331 929 b 183 927 296 961 239 946 b 89 774 147 911 76 837 b 127 636 98 729 129 682 b 45 436 125 566 35 510 b 78 267 52 379 76 324 b 33 1 81 176 16 96 b 221 1 52 1 166 0 b 192 239 186 95 179 176 b 198 278 195 252 197 265 b 375 393 212 327 344 320 b 466 238 400 340 448 295 b 490 0 491 161 474 79 b 664 0 524 0 612 1 b 573 239 606 90 581 169 z m 325 478 b 188 389 255 440 200 439 b 180 406 186 395 183 400 b 248 667 127 493 249 587 b 221 794 246 719 225 745 b 253 862 218 825 237 847 b 266 761 252 835 248 798 b 341 624 288 715 328 673 b 351 509 351 585 350 547 b 325 478 346 496 337 486 z m 259 1085 b 326 985 278 1050 301 1016 b 320 1089 326 985 348 1042 b 265 1155 308 1110 278 1128 b 260 1176 263 1163 261 1170 b 259 1177 260 1176 259 1177 l 259 1177 l 259 1177 b 259 1176 259 1177 259 1176 b 253 1155 257 1170 255 1163 b 198 1089 240 1128 210 1110 b 192 985 171 1042 192 985 b 259 1085 218 1016 240 1050 z "},"Ã":{"ha":656,"x_min":0,"x_max":0,"o":"m 573 239 b 497 407 566 302 539 360 b 436 689 425 487 462 605 b 358 836 419 744 374 784 b 354 972 345 876 331 929 b 183 927 296 961 239 946 b 89 774 147 911 76 837 b 127 636 99 729 129 682 b 45 436 125 566 35 510 b 78 267 52 379 76 324 b 33 1 81 176 16 96 b 221 1 52 1 167 0 b 192 239 186 95 179 176 b 198 278 195 252 197 265 b 375 393 212 327 344 320 b 466 238 400 340 448 295 b 490 0 491 161 474 79 b 664 0 524 0 612 1 b 573 239 606 90 581 169 z m 325 478 b 188 389 255 440 200 439 b 180 406 186 395 183 400 b 248 667 127 493 249 587 b 221 794 246 719 225 745 b 253 862 218 825 237 847 b 266 761 252 835 248 798 b 341 624 288 715 328 673 b 351 509 351 585 350 547 b 325 478 346 496 337 486 z m 155 998 b 180 998 163 999 172 998 b 207 1002 189 998 198 999 b 229 1016 215 1005 223 1009 b 247 1049 237 1025 244 1036 b 254 1065 248 1055 250 1060 b 171 1052 228 1041 208 1070 b 153 1035 164 1048 157 1042 l 125 988 b 134 995 128 990 131 993 b 155 998 141 998 148 999 z m 295 997 b 320 997 303 997 312 997 b 347 1000 329 996 338 998 b 369 1014 355 1003 363 1008 b 387 1047 377 1023 384 1035 b 394 1063 388 1053 390 1058 b 311 1050 368 1040 348 1069 b 293 1033 304 1046 297 1040 l 265 986 b 274 993 268 989 271 991 b 295 997 281 996 288 997 z "},"Ä":{"ha":656,"x_min":0,"x_max":0,"o":"m 573 239 b 497 407 566 302 539 360 b 436 689 425 487 462 605 b 358 836 419 744 374 784 b 354 972 345 876 331 929 b 183 927 296 961 239 946 b 89 774 147 911 76 837 b 127 636 98 729 129 682 b 45 436 125 566 35 510 b 78 267 52 379 76 324 b 33 1 81 176 16 96 b 221 1 52 1 166 0 b 192 239 186 95 179 176 b 198 278 195 252 197 265 b 375 393 212 327 344 320 b 466 238 400 340 448 295 b 490 0 491 161 474 79 b 664 0 524 0 612 1 b 573 239 606 90 581 169 z m 325 478 b 188 389 255 440 200 439 b 180 406 186 395 183 400 b 248 667 127 493 249 587 b 221 794 246 719 225 745 b 253 862 218 825 237 847 b 266 761 252 835 248 798 b 341 624 288 715 328 673 b 351 509 351 585 350 547 b 325 478 346 496 337 486 z m 350 998 b 374 1018 360 1001 368 1009 b 408 1103 388 1045 400 1073 b 376 1058 401 1086 390 1070 b 183 1067 335 1027 252 1085 b 110 973 158 1060 136 1010 b 350 998 212 1058 273 972 z "},"Å":{"ha":656,"x_min":0,"x_max":0,"o":"m 573 239 b 497 407 566 302 539 360 b 436 689 425 487 462 605 b 358 836 419 744 374 784 b 354 972 345 876 331 929 b 183 927 296 961 239 946 b 89 774 147 911 76 837 b 127 636 98 729 129 682 b 45 436 125 566 35 510 b 78 267 52 379 76 324 b 33 1 81 176 16 96 b 221 1 52 1 166 0 b 192 239 186 95 179 176 b 198 278 195 252 197 265 b 375 393 212 327 344 320 b 466 238 400 340 448 295 b 490 0 491 161 474 79 b 664 0 524 0 612 1 b 573 239 606 90 581 169 z m 325 478 b 188 389 255 440 200 439 b 180 406 186 395 183 400 b 248 667 127 493 249 587 b 221 794 246 719 225 745 b 253 862 218 825 237 847 b 266 761 252 835 248 798 b 341 624 288 715 328 673 b 351 509 351 585 350 547 b 325 478 346 496 337 486 z m 185 1020 b 221 999 195 1009 207 1002 b 252 1000 232 998 242 999 b 287 998 264 1001 276 998 b 356 1018 311 999 335 1006 b 375 1033 363 1021 370 1026 b 377 1037 375 1034 376 1036 b 367 1072 379 1050 376 1063 b 311 1100 354 1089 333 1106 b 280 1089 300 1098 291 1090 b 246 1096 268 1087 257 1094 b 217 1095 236 1098 226 1098 b 183 1080 205 1092 194 1087 b 165 1063 175 1077 169 1070 b 165 1046 163 1057 163 1052 b 185 1020 169 1036 176 1027 z m 240 1063 b 274 1068 251 1067 263 1069 b 292 1069 280 1068 286 1069 b 299 1036 310 1067 318 1044 l 298 1035 b 278 1031 291 1033 284 1032 b 254 1032 270 1030 262 1030 b 234 1045 246 1033 239 1038 b 232 1052 233 1047 232 1049 b 240 1063 233 1057 236 1061 z "},"Ç":{"ha":625,"x_min":0,"x_max":0,"o":"m 483 308 b 437 227 483 308 472 253 b 349 129 392 195 394 134 b 262 237 318 125 282 162 b 132 455 236 339 200 370 b 227 590 82 516 202 530 b 283 779 255 657 261 720 b 385 766 301 828 357 821 b 432 597 417 701 398 639 b 553 597 464 596 517 597 b 491 797 505 650 531 730 b 329 946 451 863 413 940 b 188 843 241 952 196 905 b 119 671 183 780 159 720 b 9 464 63 599 3 565 b 153 202 16 328 119 343 b 330 11 178 97 259 13 b 329 9 329 10 329 10 b 302 -24 326 -6 316 -15 b 297 -36 297 -27 296 -32 b 307 -44 298 -41 302 -44 b 355 -33 324 -46 341 -42 b 386 -12 364 -24 374 -17 b 410 -12 403 -7 412 -8 b 375 -60 397 -31 380 -44 b 369 -106 369 -76 374 -90 b 310 -145 361 -129 312 -142 b 436 -94 315 -145 418 -158 b 440 -50 440 -80 434 -64 b 474 -10 445 -36 462 -24 b 465 20 482 -1 481 20 b 421 20 450 22 435 22 b 387 4 409 16 397 10 b 387 13 376 -1 385 7 b 389 17 388 15 389 16 b 478 106 431 28 456 54 b 574 223 500 158 552 141 b 617 308 584 253 599 282 z "},"È":{"ha":583,"x_min":0,"x_max":0,"o":"m 211 153 b 215 255 207 187 209 221 b 211 360 222 290 221 326 b 367 457 220 413 335 433 b 400 597 424 501 400 597 b 199 464 400 597 224 513 b 205 379 188 443 197 406 b 185 421 200 393 193 407 b 206 682 133 509 207 601 b 172 811 205 728 178 767 b 397 795 250 810 321 789 b 498 947 504 804 496 941 b 204 948 500 952 313 950 b 70 948 178 948 93 948 b 47 788 55 896 34 851 b 85 650 56 743 87 696 b 50 451 83 580 40 525 b 102 282 58 394 100 339 b 57 16 105 191 40 111 b 169 16 69 16 119 16 l 169 16 b 224 16 189 16 208 16 b 480 2 325 13 395 -5 b 582 153 588 10 580 147 b 211 153 464 115 230 150 z m 263 983 b 255 1099 263 983 294 1046 b 167 1199 233 1129 171 1152 b 154 1116 160 1180 143 1142 b 263 983 177 1065 263 983 z "},"É":{"ha":583,"x_min":0,"x_max":0,"o":"m 211 153 b 215 255 207 187 209 221 b 211 360 222 290 221 326 b 367 457 220 413 335 433 b 400 597 424 501 400 597 b 199 464 400 597 224 513 b 205 379 188 443 197 406 b 185 421 200 393 193 407 b 206 682 133 509 207 601 b 172 811 205 728 178 767 b 397 795 250 810 321 789 b 498 947 504 804 496 941 b 204 948 500 952 313 950 b 70 948 178 948 93 948 b 47 788 55 896 34 851 b 85 650 56 743 87 696 b 50 451 83 580 40 525 b 102 282 58 394 100 339 b 57 16 105 191 40 111 b 169 16 69 16 119 16 l 169 16 b 224 16 189 16 208 16 b 480 2 325 13 395 -5 b 582 153 588 10 580 147 b 211 153 464 115 230 150 z m 315 1116 b 303 1199 326 1142 310 1180 b 215 1099 298 1152 237 1129 b 207 983 175 1046 207 983 b 315 1116 207 983 293 1065 z "},"Ê":{"ha":583,"x_min":0,"x_max":0,"o":"m 211 153 b 215 255 207 187 209 221 b 211 360 222 290 221 326 b 367 457 220 413 335 433 b 400 597 424 501 400 597 b 199 464 400 597 224 513 b 205 379 188 443 197 406 b 185 421 200 393 193 407 b 206 682 133 509 207 601 b 172 811 205 728 178 767 b 397 795 250 810 321 789 b 498 947 504 804 496 941 b 204 948 500 952 313 950 b 70 948 178 948 93 948 b 47 788 55 896 34 851 b 85 650 56 743 87 696 b 50 451 83 580 40 525 b 102 282 58 394 100 339 b 57 16 105 191 40 111 b 169 16 69 16 119 16 l 169 16 b 224 16 189 16 208 16 b 480 2 325 13 395 -5 b 582 153 588 10 580 147 b 211 153 464 115 230 150 z m 285 1094 b 352 995 304 1059 326 1026 b 346 1098 352 995 373 1051 b 291 1165 334 1119 304 1137 b 285 1185 289 1173 287 1180 b 285 1187 285 1186 285 1186 l 285 1186 l 285 1187 b 285 1185 285 1186 285 1186 b 279 1165 283 1180 281 1173 b 224 1098 266 1137 236 1119 b 218 995 196 1051 218 995 b 285 1094 243 1026 266 1059 z "},"Ë":{"ha":583,"x_min":0,"x_max":0,"o":"m 211 153 b 215 255 207 187 209 221 b 211 360 222 290 221 326 b 367 457 220 413 335 433 b 400 597 424 501 400 597 b 199 464 400 597 224 513 b 205 379 188 443 197 406 b 185 421 200 393 193 407 b 206 682 133 509 207 601 b 172 811 205 728 178 767 b 397 795 250 810 321 789 b 498 947 504 804 496 941 b 204 948 500 952 313 950 b 70 948 178 948 93 948 b 47 788 55 896 34 851 b 85 650 56 743 87 696 b 50 451 83 580 40 525 b 102 282 58 394 100 339 b 57 16 105 191 40 111 b 169 16 69 16 119 16 l 169 16 b 224 16 189 16 208 16 b 480 2 325 13 395 -5 b 582 153 588 10 580 147 b 211 153 464 115 230 150 z m 201 1008 b 227 1008 210 1008 218 1008 b 254 1011 236 1007 245 1009 b 275 1025 262 1014 269 1019 b 293 1058 284 1034 290 1046 b 300 1074 294 1064 297 1069 b 218 1061 275 1051 255 1080 b 200 1044 210 1057 204 1051 l 171 997 b 181 1004 174 1000 178 1002 b 201 1008 187 1007 194 1008 z m 342 1006 b 367 1006 350 1006 358 1006 b 394 1009 376 1006 385 1007 b 415 1024 402 1012 409 1017 b 433 1056 424 1033 430 1044 b 440 1072 434 1062 437 1068 b 358 1059 415 1049 395 1078 b 340 1043 350 1056 344 1050 l 311 995 b 321 1003 314 998 318 1000 b 342 1006 327 1005 334 1007 z "},"Ì":{"ha":260,"x_min":0,"x_max":0,"o":"m 184 405 b 204 666 132 493 206 585 b 69 933 203 717 87 834 b 46 773 54 881 33 836 b 84 634 55 727 85 680 b 49 435 82 564 39 510 b 100 266 56 379 98 324 b 73 0 103 175 43 101 b 208 0 92 0 153 0 b 214 239 173 94 201 176 b 184 405 225 296 214 355 z m 180 855 b 172 972 180 855 212 919 b 84 1071 150 1001 89 1024 b 72 989 77 1053 61 1014 b 180 855 94 937 180 855 z "},"Í":{"ha":251,"x_min":0,"x_max":0,"o":"m 175 405 b 196 666 123 493 198 585 b 161 811 195 717 162 760 b 195 933 161 849 193 923 b 69 735 170 933 56 798 b 75 634 76 702 79 668 b 40 435 73 564 31 510 b 92 266 48 379 90 324 b 64 0 95 175 35 101 b 199 0 83 0 145 0 b 206 239 164 94 192 176 b 175 405 216 296 206 355 z m 194 1012 b 182 1094 205 1037 189 1076 b 94 995 177 1048 116 1024 b 86 879 54 942 86 879 b 194 1012 86 879 172 960 z "},"Î":{"ha":258,"x_min":0,"x_max":0,"o":"m 196 666 b 161 811 195 717 162 760 b 162 938 161 858 162 902 b 69 735 143 920 56 798 b 75 634 76 702 79 668 b 40 435 73 564 31 510 b 92 266 48 379 90 324 b 64 0 95 175 35 101 b 199 0 83 0 145 0 b 206 239 164 94 192 176 b 175 405 216 296 206 355 b 196 666 123 493 198 585 z m 209 1006 b 154 1072 196 1027 167 1045 b 148 1093 152 1080 150 1087 b 148 1094 148 1093 148 1094 l 148 1094 l 147 1094 b 147 1093 147 1094 147 1093 b 142 1072 146 1087 144 1080 b 86 1006 129 1045 99 1027 b 81 902 59 959 81 902 b 148 1002 106 933 128 967 b 214 902 167 967 189 933 b 209 1006 214 902 236 959 z "},"Ï":{"ha":250,"x_min":0,"x_max":0,"o":"m 196 666 b 161 811 195 717 162 760 b 162 938 161 858 162 902 b 69 735 143 920 56 798 b 75 634 76 702 79 668 b 40 435 73 564 31 510 b 92 266 48 379 90 324 b 64 0 95 175 35 101 b 199 0 83 0 145 0 b 206 239 164 94 192 176 b 175 405 216 296 206 355 b 196 666 123 493 198 585 z m 71 959 b 96 959 79 960 87 959 b 123 963 105 959 114 960 b 144 977 131 966 138 971 b 162 1010 153 986 159 997 b 169 1026 163 1016 166 1021 b 87 1013 144 1002 124 1031 b 69 996 79 1009 73 1003 l 40 949 b 50 956 43 952 47 954 b 71 959 56 959 64 960 z m 227 1011 b 209 994 219 1007 213 1002 l 180 947 b 190 954 183 950 187 952 b 211 958 197 957 204 958 b 236 958 219 958 227 958 b 263 961 245 958 254 959 b 284 975 271 964 278 969 b 302 1008 293 985 299 996 b 309 1024 303 1014 306 1020 b 227 1011 284 1001 264 1030 z "},"Ñ":{"ha":678,"x_min":0,"x_max":0,"o":"m 619 239 b 589 405 630 296 619 355 b 609 666 537 493 611 585 b 575 811 608 717 576 760 b 627 970 574 849 598 937 b 490 909 602 964 520 942 b 451 773 461 876 438 836 b 489 634 460 727 490 680 b 454 435 487 564 444 509 b 505 266 461 379 503 324 b 495 193 506 242 502 217 b 386 570 459 237 433 405 b 241 861 350 697 269 759 b 224 971 230 897 225 934 b 112 895 224 971 152 944 l 112 895 l 111 895 b 99 877 106 889 102 883 b 58 772 77 846 61 828 b 78 635 55 730 80 681 b 43 436 76 565 33 510 b 95 267 51 379 93 324 b 50 1 98 176 33 96 b 237 1 69 1 183 0 b 208 239 202 95 195 176 b 178 406 219 297 208 356 b 199 666 126 493 200 586 b 194 698 198 677 197 688 b 460 6 347 491 287 217 b 460 0 460 4 460 2 b 648 0 479 0 594 0 b 619 239 613 94 606 176 z m 492 1009 b 516 1029 502 1012 511 1020 b 551 1113 530 1056 542 1084 b 518 1069 543 1097 532 1081 b 326 1078 477 1038 394 1096 b 252 984 300 1071 278 1021 b 492 1009 354 1069 416 983 z "},"Ò":{"ha":663,"x_min":0,"x_max":0,"o":"m 623 322 b 607 405 614 349 608 377 b 624 504 608 439 614 472 b 601 657 634 551 640 597 b 530 735 581 687 551 707 b 447 858 502 771 479 819 b 317 931 415 897 376 928 b 257 897 293 932 274 917 b 188 801 232 866 212 823 b 114 749 165 781 140 764 b 49 683 86 733 64 711 b 36 589 34 654 30 621 b 50 490 42 556 47 523 b 33 347 52 445 38 396 b 65 205 27 298 30 249 b 107 170 77 191 91 179 b 150 138 122 160 136 150 b 241 43 184 106 211 70 b 349 0 271 15 304 -3 b 440 44 384 3 416 19 b 490 93 456 59 471 77 b 574 149 515 116 547 130 b 633 237 606 169 627 201 b 623 322 636 266 633 295 z m 521 259 b 459 212 516 231 478 222 b 359 113 415 189 406 130 b 243 210 296 90 280 166 b 152 342 206 252 151 275 b 162 483 154 390 165 434 b 155 609 159 525 143 570 b 232 683 168 649 204 660 b 342 803 273 717 298 799 b 390 764 368 806 384 775 b 447 663 410 732 424 693 b 524 570 471 633 510 608 b 507 410 547 511 511 458 b 521 259 503 361 529 305 z m 418 919 b 410 1035 418 919 449 982 b 321 1134 387 1064 326 1088 b 309 1052 314 1116 298 1077 b 418 919 332 1000 418 919 z "},"Ó":{"ha":663,"x_min":0,"x_max":0,"o":"m 623 322 b 607 405 614 349 608 377 b 624 504 608 439 614 472 b 601 657 634 551 640 597 b 530 735 581 687 551 707 b 447 858 502 771 479 819 b 317 931 415 897 376 928 b 257 897 293 932 274 917 b 188 801 232 866 212 823 b 114 749 165 781 140 764 b 49 683 86 733 64 711 b 36 589 34 654 30 621 b 50 490 42 556 47 523 b 33 347 52 445 38 396 b 65 205 27 298 30 249 b 107 170 77 191 91 179 b 150 138 122 160 136 150 b 241 43 184 106 211 70 b 349 0 271 15 304 -3 b 440 44 384 3 416 19 b 490 93 456 59 471 77 b 574 149 515 116 547 130 b 633 237 606 169 627 201 b 623 322 636 266 633 295 z m 521 259 b 459 212 516 231 478 222 b 359 113 415 189 406 130 b 243 210 296 90 280 166 b 152 342 206 252 151 275 b 162 483 154 390 165 434 b 155 609 159 525 143 570 b 232 683 168 649 204 660 b 342 803 273 717 298 799 b 390 764 368 806 384 775 b 447 663 410 732 424 693 b 524 570 471 633 510 608 b 507 410 547 511 511 458 b 521 259 503 361 529 305 z m 340 1052 b 328 1134 351 1077 335 1116 b 240 1035 323 1088 262 1065 b 231 919 200 982 231 919 b 340 1052 231 919 317 1000 z "},"Ô":{"ha":664,"x_min":0,"x_max":0,"o":"m 623 322 b 607 405 614 349 608 377 b 624 504 608 439 614 472 b 601 657 634 551 640 597 b 530 735 581 687 551 707 b 447 858 502 771 479 819 b 317 931 415 897 376 928 b 257 897 293 932 274 917 b 188 801 232 866 212 823 b 114 749 165 781 140 764 b 49 683 86 733 64 711 b 36 589 34 654 30 621 b 50 490 42 556 47 523 b 33 347 52 445 38 396 b 65 205 27 298 30 249 b 107 170 77 191 91 179 b 150 138 122 160 136 150 b 241 43 184 106 211 70 b 349 0 271 15 304 -3 b 440 44 384 3 416 19 b 490 93 456 59 471 77 b 574 149 515 116 547 130 b 633 237 606 169 627 201 b 623 322 636 266 633 295 z m 521 259 b 459 212 516 231 478 222 b 359 113 415 189 406 130 b 243 210 296 90 280 166 b 152 342 206 252 151 275 b 162 483 154 390 165 434 b 155 609 159 525 143 570 b 232 683 168 649 204 660 b 342 803 273 717 298 799 b 390 764 368 806 384 775 b 447 663 410 732 424 693 b 524 570 471 633 510 608 b 507 410 547 511 511 458 b 521 259 503 361 529 305 z m 330 1037 b 397 937 349 1002 372 969 b 391 1041 397 937 419 994 b 336 1108 379 1062 349 1080 b 331 1128 334 1115 332 1123 b 330 1130 331 1129 330 1129 l 330 1129 l 330 1130 b 330 1128 330 1129 330 1129 b 324 1108 328 1123 326 1115 b 269 1041 311 1080 281 1062 b 263 937 242 994 263 937 b 330 1037 289 969 311 1002 z "},"Õ":{"ha":664,"x_min":0,"x_max":0,"o":"m 623 322 b 607 405 614 349 608 377 b 624 504 608 439 614 472 b 601 657 634 551 640 597 b 530 735 581 687 551 707 b 447 858 502 771 479 819 b 317 931 415 897 376 928 b 257 897 293 932 274 917 b 188 801 232 866 212 823 b 114 749 165 781 140 764 b 49 683 86 733 64 711 b 36 589 34 654 30 621 b 50 490 42 556 47 523 b 33 347 52 445 38 396 b 65 205 27 298 30 249 b 107 170 77 191 91 179 b 150 138 122 160 136 150 b 241 43 184 106 211 70 b 349 0 271 15 304 -3 b 440 44 384 3 416 19 b 490 93 456 59 471 77 b 574 149 515 116 547 130 b 633 237 606 169 627 201 b 623 322 636 266 633 295 z m 521 259 b 459 212 516 231 477 222 b 359 113 415 189 406 130 b 243 210 296 90 280 166 b 152 342 206 252 151 275 b 162 483 154 390 165 434 b 155 609 159 525 143 570 b 232 683 168 649 204 660 b 342 803 273 717 298 799 b 390 764 368 806 384 775 b 447 663 410 732 424 693 b 524 570 471 633 510 608 b 507 410 547 511 511 458 b 521 259 503 361 529 305 z m 432 987 b 456 1007 442 990 451 997 b 490 1091 470 1033 482 1062 b 458 1047 483 1074 472 1059 b 266 1055 417 1016 334 1073 b 192 962 240 1048 218 999 b 432 987 294 1047 355 960 z "},"Ö":{"ha":664,"x_min":0,"x_max":0,"o":"m 623 322 b 607 405 614 349 608 377 b 624 504 608 439 614 472 b 601 657 634 551 640 597 b 530 735 581 687 551 707 b 447 858 502 771 479 819 b 317 931 415 897 376 928 b 257 897 293 932 274 917 b 188 801 232 866 212 823 b 114 749 165 781 140 764 b 49 683 86 733 64 711 b 36 589 34 654 30 621 b 50 490 42 556 47 523 b 33 347 52 445 38 396 b 65 205 27 298 30 249 b 107 170 77 191 91 179 b 150 138 122 160 136 150 b 241 43 184 106 211 70 b 349 0 271 15 304 -3 b 440 44 384 3 416 19 b 490 93 456 59 471 77 b 574 149 515 116 547 130 b 633 237 606 169 627 201 b 623 322 636 266 633 295 z m 521 259 b 459 212 516 231 478 222 b 359 113 415 189 406 130 b 243 210 296 90 280 166 b 152 342 206 252 151 275 b 162 483 154 390 165 434 b 155 609 159 525 143 570 b 232 683 168 649 204 660 b 342 803 273 717 298 799 b 390 764 368 806 384 775 b 447 663 410 732 424 693 b 524 570 471 633 510 608 b 507 410 547 511 511 458 b 521 259 503 361 529 305 z m 237 1001 b 262 1001 245 1002 254 1001 b 289 1004 272 1001 281 1002 b 311 1019 298 1007 305 1012 b 329 1051 319 1028 326 1039 b 336 1068 330 1057 332 1063 b 253 1054 310 1044 290 1073 b 235 1038 246 1051 239 1045 l 207 990 b 217 998 210 993 213 996 b 237 1001 223 1000 230 1002 z m 377 999 b 402 999 385 1000 394 999 b 429 1003 412 999 421 1000 b 451 1017 438 1006 445 1011 b 469 1050 459 1026 466 1038 b 476 1066 470 1056 472 1061 b 393 1053 451 1042 430 1071 b 375 1036 386 1049 380 1043 l 347 989 b 357 996 350 992 353 994 b 377 999 363 999 370 1000 z "},"Ù":{"ha":631,"x_min":0,"x_max":0,"o":"m 551 406 b 577 667 501 494 577 587 b 545 812 576 718 545 761 b 598 993 545 850 564 949 b 474 925 570 994 503 960 b 420 774 444 889 408 837 b 456 636 429 728 458 681 b 417 436 452 565 408 511 b 465 268 423 380 464 325 b 428 108 466 205 413 200 b 253 127 374 154 317 130 b 198 247 198 124 171 162 b 172 413 217 306 197 370 b 197 674 121 501 197 593 b 193 705 197 684 196 695 l 194 704 b 186 746 191 718 188 732 b 212 949 178 816 194 889 b 228 976 216 959 221 968 b 228 978 228 977 228 978 b 115 903 228 978 156 952 l 115 903 l 114 902 b 101 884 109 896 105 890 b 58 780 79 854 63 835 b 76 642 55 737 79 688 b 37 443 73 572 29 517 b 85 274 44 386 85 332 b 69 152 87 233 82 191 b 224 20 49 94 142 13 b 415 22 303 25 345 43 b 535 1 455 10 491 -4 b 581 75 559 4 586 51 b 578 240 568 129 567 185 b 551 406 590 297 580 356 z m 395 944 b 387 1060 395 944 427 1008 b 299 1160 365 1090 304 1113 b 287 1077 292 1141 276 1103 b 395 944 309 1026 395 944 z "},"Ú":{"ha":631,"x_min":0,"x_max":0,"o":"m 551 406 b 577 667 501 494 577 587 b 545 812 576 718 545 761 b 598 993 545 850 564 949 b 474 925 570 994 503 960 b 420 774 444 889 408 837 b 456 636 429 728 458 681 b 417 436 452 565 408 511 b 465 268 423 380 464 325 b 428 108 466 205 413 200 b 253 127 374 154 317 130 b 198 247 198 124 171 162 b 172 413 217 306 197 370 b 197 674 121 501 197 593 b 193 705 197 684 196 695 l 194 704 b 186 746 191 718 188 732 b 212 949 178 816 194 889 b 228 976 216 959 221 968 b 228 978 228 977 228 978 b 115 903 228 978 156 952 l 115 903 l 114 902 b 101 884 109 896 105 890 b 58 780 79 854 63 835 b 76 642 55 737 79 688 b 37 443 73 572 29 517 b 85 274 44 386 85 332 b 69 152 87 233 82 191 b 224 20 49 94 142 13 b 415 22 303 25 345 43 b 535 1 455 10 491 -4 b 581 75 559 4 586 51 b 578 240 568 129 567 185 b 551 406 590 297 580 356 z m 434 1066 b 422 1148 445 1091 429 1130 b 334 1049 417 1102 356 1078 b 326 932 294 996 326 932 b 434 1066 326 932 412 1014 z "},"Û":{"ha":631,"x_min":0,"x_max":0,"o":"m 551 406 b 577 667 501 494 577 587 b 545 812 576 718 545 761 b 598 993 545 850 564 949 b 474 925 570 994 503 960 b 420 774 444 889 408 837 b 456 636 429 728 458 681 b 417 436 452 565 408 511 b 465 268 423 380 464 325 b 428 108 466 205 413 200 b 253 127 374 154 317 130 b 198 247 198 124 171 162 b 172 413 217 306 197 370 b 197 674 121 501 197 593 b 193 705 197 684 196 695 l 194 704 b 186 746 191 718 188 732 b 212 949 178 816 194 889 b 228 976 216 959 221 968 b 228 978 228 977 228 978 b 115 903 228 978 156 952 l 115 903 l 114 902 b 101 884 109 896 105 890 b 58 780 79 854 63 835 b 76 642 55 737 79 688 b 37 443 73 572 29 517 b 85 274 44 386 85 332 b 69 152 88 233 82 191 b 225 20 49 94 143 13 b 415 22 303 25 345 43 b 535 1 455 10 491 -4 b 581 75 559 4 586 51 b 578 240 568 129 567 185 b 551 406 590 297 580 356 z m 338 1067 b 405 968 357 1032 379 999 b 399 1071 405 968 426 1024 b 344 1138 387 1092 357 1110 b 338 1158 342 1146 340 1153 b 338 1160 338 1159 338 1159 l 338 1159 l 338 1160 b 338 1158 338 1159 338 1159 b 332 1138 336 1153 334 1146 b 277 1071 319 1110 289 1092 b 271 968 249 1024 271 968 b 338 1067 296 999 319 1032 z "},"Ü":{"ha":631,"x_min":0,"x_max":0,"o":"m 551 406 b 577 667 501 494 577 587 b 545 812 576 718 545 761 b 598 993 545 850 564 949 b 474 925 570 994 503 960 b 420 774 444 889 408 837 b 456 636 429 728 458 681 b 417 436 452 565 408 511 b 465 268 423 380 464 325 b 428 108 466 205 413 200 b 253 127 374 154 317 130 b 198 247 198 124 171 162 b 172 413 217 306 197 370 b 197 674 121 501 197 593 b 193 705 197 684 196 695 l 194 704 b 186 746 191 718 188 732 b 212 949 178 816 194 889 b 228 976 216 959 221 968 b 228 978 228 977 228 978 b 115 903 228 978 156 952 l 115 903 l 114 902 b 101 884 109 896 105 890 b 58 780 79 854 63 835 b 76 642 55 737 79 688 b 37 443 73 572 29 517 b 85 274 44 386 85 332 b 69 152 87 233 82 191 b 224 20 49 94 142 13 b 415 22 303 25 345 43 b 535 1 455 10 491 -4 b 581 75 559 4 586 51 b 578 240 568 129 567 185 b 551 406 590 297 580 356 z m 280 1015 b 305 1015 288 1016 297 1015 b 332 1019 314 1015 323 1016 b 353 1033 340 1022 347 1027 b 372 1066 362 1042 368 1054 b 378 1082 372 1072 375 1077 b 296 1069 353 1058 333 1087 b 278 1052 288 1065 282 1059 l 249 1005 b 259 1012 252 1008 256 1010 b 280 1015 266 1015 273 1016 z m 420 1014 b 445 1014 428 1014 437 1014 b 472 1017 454 1014 463 1015 b 493 1031 480 1020 488 1025 b 512 1064 502 1041 508 1052 b 519 1080 512 1070 515 1076 b 436 1067 493 1057 473 1086 b 418 1050 428 1063 422 1058 l 389 1003 b 399 1010 392 1006 396 1008 b 420 1014 406 1013 413 1014 z "},"":{"ha":694,"x_min":0,"x_max":0,"o":"m 203 668 b 171 813 203 720 171 762 b 174 834 171 820 172 827 b 451 768 279 835 404 839 b 419 639 491 707 459 656 b 161 489 372 619 185 579 b 203 668 166 551 203 612 z m 138 935 b 73 935 111 935 84 935 b 46 775 57 883 35 838 b 82 637 55 730 84 683 b 43 438 78 567 34 512 b 91 269 49 381 90 326 b 93 3 92 177 65 104 b 228 3 112 3 174 2 b 204 241 195 97 190 178 b 209 307 209 263 210 285 b 230 373 209 331 217 354 b 433 328 274 353 371 312 b 523 378 495 344 502 368 b 541 352 543 388 545 378 b 483 180 528 276 477 257 b 444 3 490 100 457 54 b 595 0 495 2 534 0 b 595 158 583 52 583 106 b 637 360 608 220 656 241 b 679 567 624 437 617 507 b 509 494 641 562 557 550 b 436 427 479 459 461 435 b 346 468 366 403 323 428 b 461 533 385 490 426 510 b 521 582 483 546 503 562 b 477 863 598 674 574 781 b 143 938 389 937 193 942 b 138 935 141 938 139 937 z "}}}
